<svg xmlns="http://www.w3.org/2000/svg" viewBox="0 1250 2500 2500" enable-background="new 0 1250 2500 2500"><path d="M-4000 2162.5h12500v8937.5h-12500z" fill="none"/><path fill="transparent" stroke="red" stroke-width="50" d="M2132.4 2713.2l-847.9 850.8c-13.3 9.5-25.5 14.2-36.9 14.2-15.1 0-27.4-4.7-36.9-14.2l-847.9-850.7c-132.4-132.3-226.4-266.6-282.2-402.7-55.8-136.1-72.8-261.8-51-377.2 21.7-115.3 76.1-216.4 163.1-303.4 128.5-128.5 284.5-192.8 467.9-192.8 183.3 0 339.3 64.3 467.9 192.8 47.2 47.3 86.9 100.2 119.1 158.8 32.1-58.6 71.8-111.5 119.1-158.8 128.5-130.4 284.5-195.7 467.9-195.7 183.3 0 340.3 65.2 470.7 195.7 86.9 87 140.8 188.1 161.6 303.4 20.8 115.3 3.3 241-52.5 377.2-55.6 136.1-149.7 270.3-282 402.6z" enable-background="new"/></svg>